,
Brought to you by  http://www.scenetime.com/signup.php
 
 Hottest scene tracker on the net !!!   
 
No fake torrents from scenebalance 
shame on those who comment fake before downloading my torrents

    seed back for speed


 



...................................NFO:.................................................::::::::::::::Enjoy:Another:Release:From:TDP::::::::::::::

[IMG]http://i1210.photobucket.com/albums/cc417/mr2006reloaded/Cover/HallPass_794043144424_500.jpg[/IMG]

TiTLE.........: Hall.Pass.EXTENDED.2011.BDRip.AC3-TDP
RUNTiME.......: 1h 32mn
FORMAT........: XviD
RAR COUNT.....: 101x15MB
SOURCE .......: BluRay 
GENRE.........: Comedy
AUDIO.........: English 
SUBTITLES.....: None
SAMPEL........: YES
RELEASE DATE..: 28-05-2011

IMDB : http://www.imdb.com/title/tt0480687/

Plot :
A married man is granted the opportunity to have an affair 
by his wife. Joined in the fun by his best pal, things get a 
little out of control when both wives start engaging in 
extramarital activities as well.  


General
Complete name                    : Hall.Pass.EXTENDED.2011.BDRip.AC3-TDP
Format                           : AVI
Format/Info                      : Audio Video Interleave
Format profile                   : OpenDML
File size                        : 1.41 GiB
Duration                         : 1h 51mn
Overall bit rate                 : 1 806 Kbps
Movie name                       : Hall Pass
Writing application              : Lavf52.78.4


Video

Format                           : MPEG-4 Visual
Format profile                   : Advanced Simple@L5
Format settings, BVOP            : 2
Format settings, QPel            : No
Format settings, GMC             : No warppoints
Format settings, Matrix          : Default (H.263)
Muxing mode                      : Packed bitstream
Codec ID                         : DX50
Codec ID/Hint                    : DivX 5
Duration                         : 1h 51mn
Bit rate                         : 1 346 Kbps
Width                            : 720 pixels
Height                           : 344 pixels
Display aspect ratio             : 2.093
Frame rate                       : 23.976 fps
Color space                      : YUV
Chroma subsampling               : 4:2:0
Bit depth                        : 8 bits
Scan type                        : Progressive
Compression mode                 : Lossy
Bits/(Pixel*Frame)               : 0.227
Stream size                      : 1.05 GiB (75%)
Writing library                  : XviD 1.2.1 (UTC 2008-12-04)

Audio

Format                           : AC-3
Format/Info                      : Audio Coding 3
Mode extension                   : CM (complete main)
Codec ID                         : 2000
Duration                         : 1h 51mn
Bit rate mode                    : Constant
Bit rate                         : 448 Kbps
Channel(s)                       : 6 channels
Channel positions                : Front: L C R, Side: L R, LFE
Sampling rate                    : 48.0 KHz
Bit depth                        : 16 bits
Compression mode                 : Lossy
Stream size                      : 134 MiB (9%)
Alignment                        : Aligned on interleaves
Interleave, duration             : 85 ms (2.04 video frames)
Interleave, preload duration     : 32 ms




GREETS:

IMAGiNE,FLAWL3SS,ViSiON,FUSiON,Rx,CM8,SecretMyth,BirdFlu,ELEKTRI4KA,Serenity,INK,SUBLIME
And to all the other p2p grps past and present

Looking for : SYNCERS, CAMMERS, SEED/RiPBOXES for group use
CAPPERS, SiLVER SUPPLiERS, and R1-R2-R4 PRE-RETAiL SOURCE SUPPLIERS!
Always looking for CAM+LiNE+SCR+DVDSCR+BRSCR+RUS DVD+PRERETAIL BR & DVD
If you'd like to help, feel free to contact us at thedanishpirates@gmail.com